<svg width="80" height="80" viewBox="0 0 80 80" fill="none" xmlns="http://www.w3.org/2000/svg">
<path d="M12.7905 67.2095C12.1969 67.8031 12.195 68.7678 12.8107 69.3384C16.2856 72.5588 20.3082 75.1391 24.6927 76.9552C29.5457 78.9654 34.7471 80 40 80C45.2529 80 50.4543 78.9654 55.3073 76.9552C59.6918 75.1391 63.7144 72.5588 67.1893 69.3384C67.805 68.7678 67.8031 67.8031 67.2095 67.2095C66.6159 66.6159 65.6555 66.6184 65.038 67.1871C61.8467 70.1262 58.1596 72.4833 54.144 74.1466C49.6598 76.004 44.8537 76.96 40 76.96C35.1463 76.96 30.3402 76.004 25.856 74.1466C21.8404 72.4833 18.1533 70.1262 14.962 67.1871C14.3445 66.6184 13.3841 66.6159 12.7905 67.2095Z" fill="url(#paint0_linear_136_132)"/>
<path d="M71.2451 62.4601C71.9267 62.9501 72.8791 62.7962 73.3428 62.0965C77.1286 56.3839 79.3881 49.7865 79.8922 42.9349C80.4335 35.5773 78.9295 28.2134 75.5464 21.6573C72.1634 15.1013 67.0331 9.60858 60.7229 5.78653C54.4127 1.96448 47.1684 -0.0379883 39.7911 0.000545641C32.4137 0.0390795 25.1908 2.11712 18.9208 6.00488C12.6509 9.89264 7.5783 15.4387 4.26392 22.0297C0.949543 28.6207 -0.477478 35.9999 0.140649 43.3514C0.716268 50.1974 3.04454 56.7709 6.88979 62.4436C7.36082 63.1385 8.31479 63.2824 8.99128 62.7853C9.66776 62.2882 9.81034 61.3385 9.34149 60.6421C5.82704 55.4224 3.6986 49.3839 3.16996 43.0967C2.59881 36.3039 3.91738 29.4855 6.97986 23.3954C10.0423 17.3053 14.7294 12.1808 20.5228 8.58851C26.3163 4.99622 32.9903 3.07611 39.8069 3.04051C46.6236 3.0049 53.3173 4.85518 59.148 8.38676C64.9786 11.9183 69.7189 16.9936 72.8449 23.0514C75.9708 29.1092 77.3605 35.9134 76.8604 42.7118C76.3974 49.0042 74.3322 55.0646 70.8725 60.3207C70.4109 61.0219 70.5634 61.9701 71.2451 62.4601Z" fill="url(#paint1_linear_136_132)"/>
<path d="M8 11.5C8 7.35786 11.3579 4 15.5 4C19.6421 4 23 7.35786 23 11.5C23 15.6421 19.6421 19 15.5 19C11.3579 19 8 15.6421 8 11.5Z" fill="url(#paint2_linear_136_132)"/>
<path d="M54.8218 25.1752C54.3437 24.6914 53.749 24.339 53.095 24.1522C52.441 23.9653 51.7499 23.9503 51.0884 24.1085L29.7551 28.6019C28.5265 28.7704 27.3694 29.2785 26.414 30.0691C25.4587 30.8597 24.743 31.9013 24.3476 33.0766C23.9522 34.252 23.8928 35.5144 24.1761 36.7216C24.4594 37.9289 25.0742 39.0331 25.9511 39.9099L28.2418 42.1992C28.3657 42.3231 28.4641 42.4703 28.5311 42.6323C28.5981 42.7943 28.6326 42.9679 28.6324 43.1432V47.3672C28.6354 47.9611 28.7721 48.5467 29.0324 49.0805L29.0218 49.0899L29.0564 49.1245C29.4471 49.91 30.0852 50.5453 30.8724 50.9325L30.9071 50.9672L30.9164 50.9565C31.4502 51.2169 32.0359 51.3536 32.6298 51.3565H36.8538C37.2072 51.3563 37.5462 51.4963 37.7964 51.7459L40.0858 54.0352C40.6998 54.656 41.4306 55.1492 42.2361 55.4863C43.0417 55.8234 43.9059 55.9977 44.7791 55.9992C45.5068 55.9983 46.2295 55.8794 46.9191 55.6472C48.0837 55.2648 49.1183 54.5646 49.9061 53.6255C50.6939 52.6864 51.2036 51.5459 51.3778 50.3325L55.8778 28.9525C56.0442 28.2854 56.0344 27.5864 55.8493 26.9242C55.6642 26.262 55.3101 25.6593 54.8218 25.1752ZM30.1298 40.3165L27.8378 38.0272C27.3041 37.5064 26.93 36.8441 26.7595 36.1181C26.589 35.3921 26.6291 34.6325 26.8751 33.9285C27.1136 33.2063 27.5546 32.5678 28.1455 32.0889C28.7364 31.61 29.4525 31.3109 30.2084 31.2272L51.3298 26.7805L31.2964 46.8165V43.1432C31.2985 42.6183 31.1964 42.0982 30.9961 41.6131C30.7959 41.1279 30.5014 40.6872 30.1298 40.3165ZM48.7578 49.8765C48.6554 50.613 48.3498 51.3063 47.8752 51.8787C47.4007 52.4511 46.776 52.8799 46.0713 53.117C45.3666 53.3541 44.6097 53.39 43.8857 53.2209C43.1617 53.0517 42.4991 52.684 41.9724 52.1592L39.6791 49.8659C39.3089 49.4937 38.8686 49.1986 38.3837 48.9976C37.8987 48.7967 37.3787 48.6939 36.8538 48.6952H33.1804L53.2164 28.6659L48.7578 49.8765Z" fill="url(#paint3_linear_136_132)"/>
<defs>
<linearGradient id="paint0_linear_136_132" x1="30.4" y1="-3.69849e-06" x2="76.3679" y2="30.8055" gradientUnits="userSpaceOnUse">
<stop stop-color="#FF5F6D"/>
<stop offset="1" stop-color="#FFC371"/>
</linearGradient>
<linearGradient id="paint1_linear_136_132" x1="30.4" y1="-3.69849e-06" x2="76.3679" y2="30.8055" gradientUnits="userSpaceOnUse">
<stop stop-color="#FF5F6D"/>
<stop offset="1" stop-color="#FFC371"/>
</linearGradient>
<linearGradient id="paint2_linear_136_132" x1="13.7" y1="4" x2="22.319" y2="9.77604" gradientUnits="userSpaceOnUse">
<stop stop-color="#FF5F6D"/>
<stop offset="1" stop-color="#FFC371"/>
</linearGradient>
<linearGradient id="paint3_linear_136_132" x1="36.1584" y1="24" x2="54.5443" y2="36.3201" gradientUnits="userSpaceOnUse">
<stop stop-color="#FF5F6D"/>
<stop offset="1" stop-color="#FFC371"/>
</linearGradient>
</defs>
</svg>
