<svg width="80" height="80" viewBox="0 0 80 80" fill="none" xmlns="http://www.w3.org/2000/svg">
<path d="M12.7905 67.2095C12.1969 67.8031 12.195 68.7678 12.8107 69.3384C16.2856 72.5588 20.3082 75.1391 24.6927 76.9552C29.5457 78.9654 34.7471 80 40 80C45.2529 80 50.4543 78.9654 55.3073 76.9552C59.6918 75.1391 63.7144 72.5588 67.1893 69.3384C67.805 68.7678 67.8031 67.8031 67.2095 67.2095C66.6159 66.6159 65.6555 66.6184 65.038 67.1871C61.8467 70.1262 58.1596 72.4833 54.144 74.1466C49.6598 76.004 44.8537 76.96 40 76.96C35.1463 76.96 30.3402 76.004 25.856 74.1466C21.8404 72.4833 18.1533 70.1262 14.962 67.1871C14.3445 66.6184 13.3841 66.6159 12.7905 67.2095Z" fill="url(#paint0_linear_136_131)"/>
<path d="M71.2451 62.4601C71.9267 62.9501 72.8791 62.7962 73.3428 62.0965C77.1286 56.3839 79.3881 49.7865 79.8922 42.9349C80.4335 35.5773 78.9295 28.2134 75.5464 21.6573C72.1634 15.1013 67.0331 9.60858 60.7229 5.78653C54.4127 1.96448 47.1684 -0.0379883 39.7911 0.000545641C32.4137 0.0390795 25.1908 2.11712 18.9208 6.00488C12.6509 9.89264 7.5783 15.4387 4.26392 22.0297C0.949543 28.6207 -0.477478 35.9999 0.140649 43.3514C0.716268 50.1974 3.04454 56.7709 6.88979 62.4436C7.36082 63.1385 8.31479 63.2824 8.99128 62.7853C9.66776 62.2882 9.81034 61.3385 9.34149 60.6421C5.82704 55.4224 3.6986 49.3839 3.16996 43.0967C2.59881 36.3039 3.91738 29.4855 6.97986 23.3954C10.0423 17.3053 14.7294 12.1808 20.5228 8.58851C26.3163 4.99622 32.9903 3.07611 39.8069 3.04051C46.6236 3.0049 53.3173 4.85518 59.148 8.38676C64.9786 11.9183 69.7189 16.9936 72.8449 23.0514C75.9708 29.1092 77.3605 35.9134 76.8604 42.7118C76.3974 49.0042 74.3322 55.0646 70.8725 60.3207C70.4109 61.0219 70.5634 61.9701 71.2451 62.4601Z" fill="url(#paint1_linear_136_131)"/>
<g clip-path="url(#clip0_136_131)">
<path d="M40 24C36.8355 24 33.7421 24.9384 31.1109 26.6965C28.4797 28.4546 26.4289 30.9534 25.2179 33.8771C24.0069 36.8007 23.6901 40.0177 24.3074 43.1214C24.9248 46.2251 26.4487 49.0761 28.6863 51.3137C30.9239 53.5514 33.7749 55.0752 36.8786 55.6926C39.9823 56.3099 43.1993 55.9931 46.1229 54.7821C49.0466 53.5711 51.5454 51.5203 53.3035 48.8891C55.0616 46.2579 56 43.1645 56 40C55.9954 35.7579 54.3082 31.6909 51.3087 28.6914C48.3091 25.6918 44.2421 24.0046 40 24ZM40 53.3333C37.3629 53.3333 34.7851 52.5513 32.5924 51.0863C30.3997 49.6212 28.6908 47.5388 27.6816 45.1024C26.6724 42.6661 26.4084 39.9852 26.9229 37.3988C27.4373 34.8124 28.7072 32.4366 30.5719 30.5719C32.4366 28.7072 34.8124 27.4373 37.3988 26.9229C39.9852 26.4084 42.6661 26.6724 45.1025 27.6816C47.5388 28.6908 49.6212 30.3997 51.0863 32.5924C52.5514 34.7851 53.3333 37.3629 53.3333 40C53.3295 43.535 51.9235 46.9242 49.4238 49.4238C46.9242 51.9235 43.535 53.3295 40 53.3333ZM46.6667 40C46.6667 40.3536 46.5262 40.6928 46.2762 40.9428C46.0261 41.1929 45.687 41.3333 45.3333 41.3333H41.3333V45.3333C41.3333 45.687 41.1929 46.0261 40.9428 46.2761C40.6928 46.5262 40.3536 46.6667 40 46.6667C39.6464 46.6667 39.3072 46.5262 39.0572 46.2761C38.8072 46.0261 38.6667 45.687 38.6667 45.3333V41.3333H34.6667C34.3131 41.3333 33.9739 41.1929 33.7239 40.9428C33.4738 40.6928 33.3333 40.3536 33.3333 40C33.3333 39.6464 33.4738 39.3072 33.7239 39.0572C33.9739 38.8071 34.3131 38.6667 34.6667 38.6667H38.6667V34.6667C38.6667 34.313 38.8072 33.9739 39.0572 33.7239C39.3072 33.4738 39.6464 33.3333 40 33.3333C40.3536 33.3333 40.6928 33.4738 40.9428 33.7239C41.1929 33.9739 41.3333 34.313 41.3333 34.6667V38.6667H45.3333C45.687 38.6667 46.0261 38.8071 46.2762 39.0572C46.5262 39.3072 46.6667 39.6464 46.6667 40Z" fill="url(#paint2_linear_136_131)"/>
</g>
<path d="M8 11.5C8 7.35786 11.3579 4 15.5 4C19.6421 4 23 7.35786 23 11.5C23 15.6421 19.6421 19 15.5 19C11.3579 19 8 15.6421 8 11.5Z" fill="url(#paint3_linear_136_131)"/>
<defs>
<linearGradient id="paint0_linear_136_131" x1="31.4" y1="-2.10917e-06" x2="77.2641" y2="33.8617" gradientUnits="userSpaceOnUse">
<stop stop-color="#08B359"/>
<stop offset="1" stop-color="#F3E51A"/>
</linearGradient>
<linearGradient id="paint1_linear_136_131" x1="31.4" y1="-2.10917e-06" x2="77.2641" y2="33.8617" gradientUnits="userSpaceOnUse">
<stop stop-color="#08B359"/>
<stop offset="1" stop-color="#F3E51A"/>
</linearGradient>
<linearGradient id="paint2_linear_136_131" x1="36.56" y1="24" x2="54.9057" y2="37.5447" gradientUnits="userSpaceOnUse">
<stop stop-color="#08B359"/>
<stop offset="1" stop-color="#F3E51A"/>
</linearGradient>
<linearGradient id="paint3_linear_136_131" x1="13.8875" y1="4" x2="22.487" y2="10.3491" gradientUnits="userSpaceOnUse">
<stop stop-color="#08B359"/>
<stop offset="1" stop-color="#F3E51A"/>
</linearGradient>
<clipPath id="clip0_136_131">
<rect width="32" height="32" fill="white" transform="translate(24 24)"/>
</clipPath>
</defs>
</svg>
