<svg width="91" height="92" viewBox="0 0 91 92" fill="none" xmlns="http://www.w3.org/2000/svg">
<rect x="0.612372" y="20.3533" width="73" height="73" rx="19.5" transform="rotate(-15 0.612372 20.3533)" stroke="url(#paint0_linear_1175_1108)"/>
<circle cx="7" cy="27.0002" r="7" fill="url(#paint1_linear_1175_1108)"/>
<g clip-path="url(#clip0_1175_1108)">
<path d="M51.6667 30C51.313 30 50.9739 30.1405 50.7239 30.3905C50.4738 30.6406 50.3333 30.9797 50.3333 31.3333C50.3333 35.2653 46.8893 36.6667 43.6667 36.6667H34.3333C32.9188 36.6667 31.5623 37.2286 30.5621 38.2288C29.5619 39.229 29 40.5855 29 42V44.6667C29.0029 45.465 29.1859 46.2524 29.5355 46.9701C29.885 47.6878 30.392 48.3174 31.0187 48.812L35.7813 59.4413C36.1201 60.2028 36.6722 60.8497 37.371 61.3038C38.0698 61.7579 38.8853 61.9998 39.7187 62C40.3817 61.9996 41.0342 61.8333 41.6166 61.5164C42.199 61.1994 42.693 60.7418 43.0534 60.1853C43.4138 59.6287 43.6294 58.9909 43.6803 58.3297C43.7313 57.6686 43.6162 57.0052 43.3453 56.4L40.412 50H43.6667C46.8893 50 50.3333 51.4013 50.3333 55.3333C50.3333 55.687 50.4738 56.0261 50.7239 56.2761C50.9739 56.5262 51.313 56.6667 51.6667 56.6667C52.0203 56.6667 52.3594 56.5262 52.6095 56.2761C52.8595 56.0261 53 55.687 53 55.3333V31.3333C53 30.9797 52.8595 30.6406 52.6095 30.3905C52.3594 30.1405 52.0203 30 51.6667 30ZM40.916 57.492C41.0043 57.6914 41.0415 57.9098 41.0241 58.1272C41.0067 58.3446 40.9353 58.5543 40.8164 58.7372C40.6975 58.92 40.5348 59.0703 40.3431 59.1744C40.1514 59.2785 39.9368 59.3332 39.7187 59.3333C39.4005 59.3331 39.0893 59.2405 38.8228 59.0668C38.5563 58.893 38.3459 58.6457 38.2173 58.3547L34.4733 50H37.4787L40.916 57.492ZM50.3333 49.4667C48.4284 47.9989 46.0698 47.2442 43.6667 47.3333H34.3333C33.6261 47.3333 32.9478 47.0524 32.4477 46.5523C31.9476 46.0522 31.6667 45.3739 31.6667 44.6667V42C31.6667 41.2928 31.9476 40.6145 32.4477 40.1144C32.9478 39.6143 33.6261 39.3333 34.3333 39.3333H43.6667C46.069 39.4244 48.4275 38.672 50.3333 37.2067V49.4667ZM60.8667 50.6027C60.7885 50.7594 60.6801 50.8992 60.5478 51.0141C60.4156 51.129 60.262 51.2167 60.0958 51.2721C59.9296 51.3276 59.7541 51.3498 59.5794 51.3374C59.4046 51.325 59.234 51.2783 59.0773 51.2L56.4107 49.8667C56.0942 49.7086 55.8534 49.4313 55.7414 49.0957C55.6294 48.7601 55.6553 48.3938 55.8133 48.0773C55.9714 47.7608 56.2487 47.5201 56.5843 47.4081C56.9199 47.2961 57.2862 47.3219 57.6027 47.48L60.2693 48.8133C60.5842 48.9713 60.8238 49.2475 60.9357 49.5815C61.0476 49.9155 61.0228 50.2802 60.8667 50.596V50.6027ZM55.8133 38.6027C55.735 38.446 55.6883 38.2754 55.6759 38.1006C55.6635 37.9259 55.6857 37.7504 55.7412 37.5842C55.7967 37.418 55.8844 37.2644 55.9992 37.1322C56.1141 36.9999 56.2539 36.8915 56.4107 36.8133L59.0773 35.48C59.3938 35.3219 59.7601 35.2961 60.0957 35.4081C60.4313 35.5201 60.7086 35.7608 60.8667 36.0773C61.0247 36.3938 61.0506 36.7601 60.9386 37.0957C60.8266 37.4313 60.5858 37.7086 60.2693 37.8667L57.6027 39.2C57.446 39.2783 57.2754 39.325 57.1006 39.3374C56.9259 39.3498 56.7504 39.3276 56.5842 39.2721C56.418 39.2167 56.2644 39.129 56.1322 39.0141C55.9999 38.8992 55.8915 38.7594 55.8133 38.6027ZM55.6667 43.3333C55.6667 42.9797 55.8071 42.6406 56.0572 42.3905C56.3072 42.1405 56.6464 42 57 42H59.6667C60.0203 42 60.3594 42.1405 60.6095 42.3905C60.8595 42.6406 61 42.9797 61 43.3333C61 43.687 60.8595 44.0261 60.6095 44.2761C60.3594 44.5262 60.0203 44.6667 59.6667 44.6667H57C56.6464 44.6667 56.3072 44.5262 56.0572 44.2761C55.8071 44.0261 55.6667 43.687 55.6667 43.3333Z" fill="url(#paint2_linear_1175_1108)"/>
</g>
<defs>
<linearGradient id="paint0_linear_1175_1108" x1="28.12" y1="19.9998" x2="70.6403" y2="48.4949" gradientUnits="userSpaceOnUse">
<stop stop-color="#FF5F6D"/>
<stop offset="1" stop-color="#FFC371"/>
</linearGradient>
<linearGradient id="paint1_linear_1175_1108" x1="5.32" y1="20.0002" x2="13.3644" y2="25.3912" gradientUnits="userSpaceOnUse">
<stop stop-color="#FF5F6D"/>
<stop offset="1" stop-color="#FFC371"/>
</linearGradient>
<linearGradient id="paint2_linear_1175_1108" x1="41.1627" y1="30" x2="59.5515" y2="42.3261" gradientUnits="userSpaceOnUse">
<stop stop-color="#FF5F6D"/>
<stop offset="1" stop-color="#FFC371"/>
</linearGradient>
<clipPath id="clip0_1175_1108">
<rect width="32" height="32" fill="white" transform="translate(29 30)"/>
</clipPath>
</defs>
</svg>
