<svg width="91" height="92" viewBox="0 0 91 92" fill="none" xmlns="http://www.w3.org/2000/svg">
<rect x="0.612372" y="20.3533" width="73" height="73" rx="19.5" transform="rotate(-15 0.612372 20.3533)" stroke="url(#paint0_linear_1184_104)"/>
<circle cx="7" cy="27.0002" r="7" fill="url(#paint1_linear_1184_104)"/>
<g clip-path="url(#clip0_1184_104)">
<path d="M52.992 33.0479C51.3645 31.594 49.3714 30.6114 47.2271 30.2058C45.0828 29.8003 42.8685 29.9872 40.8225 30.7464C38.7765 31.5056 36.9762 32.8084 35.6155 34.5146C34.2548 36.2207 33.3851 38.2656 33.1 40.4293C32.844 42.3264 33.0487 44.2573 33.6969 46.0585C34.3452 47.8598 35.4178 49.4783 36.824 50.7773C37.6936 51.5399 38.3953 52.4748 38.8846 53.5228C39.374 54.5707 39.6403 55.709 39.6667 56.8653V57.0799C39.6681 58.3844 40.1869 59.635 41.1092 60.5573C42.0316 61.4797 43.2822 61.9985 44.5867 61.9999H45.4133C46.7178 61.9985 47.9684 61.4797 48.8907 60.5573C49.8131 59.635 50.3319 58.3844 50.3333 57.0799V56.3479C50.3533 55.3259 50.5938 54.3202 51.0384 53.3997C51.483 52.4792 52.1212 51.6656 52.9093 51.0146C54.1874 49.8952 55.2131 48.517 55.9184 46.9712C56.6236 45.4255 56.9924 43.7476 57.0002 42.0486C57.008 40.3496 56.6547 38.6683 55.9637 37.1161C55.2727 35.564 54.2598 34.1764 52.992 33.0453V33.0479ZM45.4133 59.3333H44.5867C43.9892 59.3326 43.4165 59.0949 42.9941 58.6725C42.5717 58.2501 42.334 57.6773 42.3333 57.0799C42.3333 57.0799 42.324 56.7333 42.3227 56.6666H47.6667V57.0799C47.6659 57.6773 47.4283 58.2501 47.0059 58.6725C46.5835 59.0949 46.0107 59.3326 45.4133 59.3333ZM51.1467 49.0119C49.6286 50.3286 48.5322 52.0636 47.9947 53.9999H46.3333V44.4213C47.1105 44.1465 47.7839 43.6383 48.2612 42.9662C48.7385 42.2941 48.9966 41.4909 49 40.6666C49 40.313 48.8595 39.9738 48.6095 39.7238C48.3594 39.4737 48.0203 39.3333 47.6667 39.3333C47.313 39.3333 46.9739 39.4737 46.7238 39.7238C46.4738 39.9738 46.3333 40.313 46.3333 40.6666C46.3333 41.0202 46.1928 41.3594 45.9428 41.6094C45.6927 41.8595 45.3536 41.9999 45 41.9999C44.6464 41.9999 44.3072 41.8595 44.0572 41.6094C43.8071 41.3594 43.6667 41.0202 43.6667 40.6666C43.6667 40.313 43.5262 39.9738 43.2761 39.7238C43.0261 39.4737 42.6869 39.3333 42.3333 39.3333C41.9797 39.3333 41.6406 39.4737 41.3905 39.7238C41.1405 39.9738 41 40.313 41 40.6666C41.0034 41.4909 41.2614 42.2941 41.7388 42.9662C42.2161 43.6383 42.8894 44.1465 43.6667 44.4213V53.9999H41.904C41.3026 52.0122 40.1748 50.2242 38.64 48.8253C37.3373 47.6114 36.409 46.0502 35.9646 44.3259C35.5203 42.6016 35.5784 40.7862 36.1323 39.0939C36.6861 37.4016 37.7124 35.9031 39.0902 34.7751C40.468 33.6471 42.1397 32.9368 43.908 32.7279C44.2746 32.687 44.6431 32.6665 45.012 32.6666C47.3021 32.6598 49.5129 33.5048 51.2147 35.0373C52.2009 35.9167 52.989 36.9958 53.5266 38.2029C54.0642 39.41 54.3391 40.7176 54.333 42.039C54.327 43.3604 54.0401 44.6655 53.4915 45.8676C52.9428 47.0697 52.1449 48.1415 51.1507 49.0119H51.1467Z" fill="url(#paint2_linear_1184_104)"/>
</g>
<defs>
<linearGradient id="paint0_linear_1184_104" x1="28.12" y1="19.9998" x2="70.608" y2="49.851" gradientUnits="userSpaceOnUse">
<stop stop-color="#7E8FFF"/>
<stop offset="1" stop-color="#92EFFD"/>
</linearGradient>
<linearGradient id="paint1_linear_1184_104" x1="5.32" y1="20.0002" x2="13.3583" y2="25.6478" gradientUnits="userSpaceOnUse">
<stop stop-color="#7E8FFF"/>
<stop offset="1" stop-color="#92EFFD"/>
</linearGradient>
<linearGradient id="paint2_linear_1184_104" x1="42.1157" y1="29.9968" x2="58.2283" y2="38.4889" gradientUnits="userSpaceOnUse">
<stop stop-color="#7E8FFF"/>
<stop offset="1" stop-color="#92EFFD"/>
</linearGradient>
<clipPath id="clip0_1184_104">
<rect width="32" height="32" fill="white" transform="translate(29 30)"/>
</clipPath>
</defs>
</svg>
