<svg width="150" height="150" viewBox="0 0 150 150" fill="none" xmlns="http://www.w3.org/2000/svg">
<path d="M133.961 117.384C135.03 118.153 136.524 117.911 137.259 116.817C144.513 106.018 148.84 93.5044 149.797 80.5029C150.812 66.7075 147.992 52.9001 141.648 40.6075C135.305 28.3149 125.686 18.0161 113.854 10.8497C102.023 3.6834 88.4397 -0.071228 74.6072 0.00102308C60.7747 0.0732741 47.2316 3.96959 35.4755 11.2591C23.7194 18.5487 14.2082 28.9475 7.99378 41.3056C1.77933 53.6638 -0.896339 67.4999 0.262649 81.284C1.35494 94.2748 5.81312 106.742 13.1791 117.465C13.9251 118.551 15.4216 118.778 16.4832 117.997C17.5449 117.217 17.7695 115.727 17.0259 114.639C10.1796 104.626 6.03538 92.9982 5.01682 80.8842C3.93156 67.977 6.43702 55.0211 12.2562 43.449C18.0753 31.877 26.9814 22.1397 37.9897 15.3139C48.998 8.48803 61.6795 4.83956 74.6321 4.77191C87.5847 4.70425 100.304 8.22004 111.383 14.9305C122.462 21.641 131.469 31.2847 137.409 42.7953C143.348 54.3059 145.989 67.235 145.039 80.1528C144.147 92.2768 140.124 103.948 133.383 114.031C132.651 115.126 132.891 116.615 133.961 117.384Z" fill="url(#paint0_linear_43_2)"/>
<path d="M12.9989 22C12.9989 13.7157 19.7147 7 27.9989 7C36.2832 7 42.9989 13.7157 42.9989 22C42.9989 30.2843 36.2832 37 27.9989 37C19.7147 37 12.9989 30.2843 12.9989 22Z" fill="url(#paint1_linear_43_2)"/>
<defs>
<linearGradient id="paint0_linear_43_2" x1="56.9989" y1="-6.93466e-06" x2="143.189" y2="57.7604" gradientUnits="userSpaceOnUse">
<stop stop-color="#FF5F6D"/>
<stop offset="1" stop-color="#FFC371"/>
</linearGradient>
<linearGradient id="paint1_linear_43_2" x1="24.3989" y1="7" x2="41.6369" y2="18.5521" gradientUnits="userSpaceOnUse">
<stop stop-color="#FF5F6D"/>
<stop offset="1" stop-color="#FFC371"/>
</linearGradient>
</defs>
</svg>
