<svg width="89" height="79" viewBox="0 0 89 79" fill="none" xmlns="http://www.w3.org/2000/svg">
<path opacity="0.2" d="M38.7072 3.55861C42.0259 1.39562 46.3087 1.39562 49.6274 3.55861L72.0426 18.1675C74.0077 19.4483 75.4601 21.379 76.1457 23.6222L85.5001 54.2265C87.0795 59.3936 84.2687 64.8808 79.1526 66.6184L47.3831 77.4079C45.2977 78.1161 43.0369 78.1161 40.9515 77.4079L9.18199 66.6184C4.06587 64.8808 1.25515 59.3936 2.83451 54.2265L12.1889 23.6222C12.8745 21.379 14.3269 19.4483 16.292 18.1675L38.7072 3.55861Z" fill="url(#paint0_linear_1129_10)"/>
<circle cx="15" cy="19" r="7" fill="url(#paint1_linear_1129_10)"/>
<g clip-path="url(#clip0_1129_10)">
<path d="M44 31C39.5867 31 36 34.5867 36 39C36 43.4133 39.5867 47 44 47C48.4133 47 52 43.4133 52 39C52 38.28 51.8933 37.6 51.72 36.9333L53.8133 34.84C54.36 36.12 54.6667 37.52 54.6667 39C54.6667 44.88 49.88 49.6667 44 49.6667C38.12 49.6667 33.3333 44.88 33.3333 39C33.3333 33.12 38.12 28.3333 44 28.3333C45.48 28.3333 46.88 28.64 48.16 29.1867L46.0667 31.28C45.4133 31.1067 44.72 31 44 31ZM56.8 35.3067C57.1467 36.48 57.3333 37.72 57.3333 39C57.3333 46.3467 51.3467 52.3333 44 52.3333C36.6533 52.3333 30.6667 46.3467 30.6667 39C30.6667 31.6533 36.6533 25.6667 44 25.6667C45.28 25.6667 46.52 25.8533 47.6933 26.2L49.7867 24.1067C47.9867 23.4 46.04 23 44 23C35.1733 23 28 30.1733 28 39C28 47.8267 35.1733 55 44 55C52.8267 55 60 47.8267 60 39C60 36.96 59.6 35 58.8933 33.2133L56.8 35.3067ZM43.64 33.7067C40.8667 33.8933 38.6667 36.1867 38.6667 39C38.6667 41.8133 41.0533 44.3333 44 44.3333C46.9467 44.3333 49.1067 42.1333 49.2933 39.36L47.7733 40.88C46.2133 42.44 43.68 42.44 42.12 40.88C40.56 39.32 40.56 36.7867 42.12 35.2267L43.64 33.7067ZM43.0533 38.0667L44.9333 39.9467L52.5467 32.3333H56L60 28.3333H54.6667V23L50.6667 27V30.4533L43.0533 38.0667Z" fill="url(#paint2_linear_1129_10)"/>
</g>
<defs>
<linearGradient id="paint0_linear_1129_10" x1="33.5671" y1="-3.62914e-06" x2="80.4549" y2="35.3586" gradientUnits="userSpaceOnUse">
<stop stop-color="#FF5F6D"/>
<stop offset="1" stop-color="#FFC371"/>
</linearGradient>
<linearGradient id="paint1_linear_1129_10" x1="13.32" y1="12" x2="21.3644" y2="17.391" gradientUnits="userSpaceOnUse">
<stop stop-color="#FF5F6D"/>
<stop offset="1" stop-color="#FFC371"/>
</linearGradient>
<linearGradient id="paint2_linear_1129_10" x1="40.16" y1="23" x2="58.5471" y2="35.3222" gradientUnits="userSpaceOnUse">
<stop stop-color="#FF5F6D"/>
<stop offset="1" stop-color="#FFC371"/>
</linearGradient>
<clipPath id="clip0_1129_10">
<rect width="32" height="32" fill="white" transform="translate(28 23)"/>
</clipPath>
</defs>
</svg>
