<svg width="89" height="79" viewBox="0 0 89 79" fill="none" xmlns="http://www.w3.org/2000/svg">
<path opacity="0.2" d="M38.7072 3.55861C42.0259 1.39562 46.3087 1.39562 49.6274 3.55861L72.0426 18.1675C74.0077 19.4483 75.4601 21.379 76.1457 23.6222L85.5001 54.2265C87.0795 59.3936 84.2687 64.8808 79.1526 66.6184L47.3831 77.4079C45.2977 78.1161 43.0369 78.1161 40.9515 77.4079L9.18199 66.6184C4.06587 64.8808 1.25515 59.3936 2.83451 54.2265L12.1889 23.6222C12.8745 21.379 14.3269 19.4483 16.292 18.1675L38.7072 3.55861Z" fill="url(#paint0_linear_1129_33)"/>
<circle cx="15" cy="19" r="7" fill="url(#paint1_linear_1129_33)"/>
<g clip-path="url(#clip0_1129_33)">
<path d="M35.3333 51C34.4493 51 33.6014 50.6488 32.9763 50.0237C32.3512 49.3986 32 48.5507 32 47.6667V25C32 24.4696 31.7893 23.9609 31.4142 23.5858C31.0391 23.2107 30.5304 23 30 23C29.4696 23 28.9609 23.2107 28.5858 23.5858C28.2107 23.9609 28 24.4696 28 25V47.6667C28 49.6116 28.7726 51.4769 30.1479 52.8521C31.5232 54.2274 33.3884 55 35.3333 55H58C58.5304 55 59.0391 54.7893 59.4142 54.4142C59.7893 54.0391 60 53.5304 60 53C60 52.4696 59.7893 51.9609 59.4142 51.5858C59.0391 51.2107 58.5304 51 58 51H35.3333Z" fill="url(#paint2_linear_1129_33)"/>
<path d="M54 47C54.5304 47 55.0391 46.7893 55.4142 46.4142C55.7893 46.0391 56 45.5304 56 45V37C56 36.4696 55.7893 35.9609 55.4142 35.5858C55.0391 35.2107 54.5304 35 54 35C53.4696 35 52.9609 35.2107 52.5858 35.5858C52.2107 35.9609 52 36.4696 52 37V45C52 45.5304 52.2107 46.0391 52.5858 46.4142C52.9609 46.7893 53.4696 47 54 47Z" fill="url(#paint3_linear_1129_33)"/>
<path d="M38 47C38.5304 47 39.0391 46.7893 39.4142 46.4142C39.7893 46.0391 40 45.5304 40 45V37C40 36.4696 39.7893 35.9609 39.4142 35.5858C39.0391 35.2107 38.5304 35 38 35C37.4696 35 36.9609 35.2107 36.5858 35.5858C36.2107 35.9609 36 36.4696 36 37V45C36 45.5304 36.2107 46.0391 36.5858 46.4142C36.9609 46.7893 37.4696 47 38 47Z" fill="url(#paint4_linear_1129_33)"/>
<path d="M46 47C46.5304 47 47.0391 46.7893 47.4142 46.4143C47.7893 46.0392 48 45.5305 48 45V30.3334C48 29.8029 47.7893 29.2942 47.4142 28.9192C47.0391 28.5441 46.5304 28.3334 46 28.3334C45.4696 28.3334 44.9609 28.5441 44.5858 28.9192C44.2107 29.2942 44 29.8029 44 30.3334V45C44 45.5305 44.2107 46.0392 44.5858 46.4143C44.9609 46.7893 45.4696 47 46 47Z" fill="url(#paint5_linear_1129_33)"/>
</g>
<defs>
<linearGradient id="paint0_linear_1129_33" x1="34.6713" y1="-2.06962e-06" x2="80.9652" y2="38.461" gradientUnits="userSpaceOnUse">
<stop stop-color="#08B359"/>
<stop offset="1" stop-color="#F3E51A"/>
</linearGradient>
<linearGradient id="paint1_linear_1129_33" x1="13.495" y1="12" x2="21.5212" y2="17.9258" gradientUnits="userSpaceOnUse">
<stop stop-color="#08B359"/>
<stop offset="1" stop-color="#F3E51A"/>
</linearGradient>
<linearGradient id="paint2_linear_1129_33" x1="40.56" y1="23" x2="58.9057" y2="36.5447" gradientUnits="userSpaceOnUse">
<stop stop-color="#08B359"/>
<stop offset="1" stop-color="#F3E51A"/>
</linearGradient>
<linearGradient id="paint3_linear_1129_33" x1="53.57" y1="35" x2="56.9109" y2="35.8222" gradientUnits="userSpaceOnUse">
<stop stop-color="#08B359"/>
<stop offset="1" stop-color="#F3E51A"/>
</linearGradient>
<linearGradient id="paint4_linear_1129_33" x1="37.57" y1="35" x2="40.9109" y2="35.8222" gradientUnits="userSpaceOnUse">
<stop stop-color="#08B359"/>
<stop offset="1" stop-color="#F3E51A"/>
</linearGradient>
<linearGradient id="paint5_linear_1129_33" x1="45.57" y1="28.3334" x2="49.0267" y2="28.8803" gradientUnits="userSpaceOnUse">
<stop stop-color="#08B359"/>
<stop offset="1" stop-color="#F3E51A"/>
</linearGradient>
<clipPath id="clip0_1129_33">
<rect width="32" height="32" fill="white" transform="translate(28 23)"/>
</clipPath>
</defs>
</svg>
