<svg width="89" height="79" viewBox="0 0 89 79" fill="none" xmlns="http://www.w3.org/2000/svg">
<path opacity="0.2" d="M38.7072 3.55861C42.0259 1.39562 46.3087 1.39562 49.6274 3.55861L72.0426 18.1675C74.0077 19.4483 75.4601 21.379 76.1457 23.6222L85.5001 54.2265C87.0795 59.3936 84.2687 64.8808 79.1526 66.6184L47.3831 77.4079C45.2977 78.1161 43.0369 78.1161 40.9515 77.4079L9.18199 66.6184C4.06587 64.8808 1.25515 59.3936 2.83451 54.2265L12.1889 23.6222C12.8745 21.379 14.3269 19.4483 16.292 18.1675L38.7072 3.55861Z" fill="url(#paint0_linear_1129_47)"/>
<circle cx="15" cy="19" r="7" fill="url(#paint1_linear_1129_47)"/>
<g clip-path="url(#clip0_1129_47)">
<path d="M51.9999 34.3333C51.9999 35.2174 51.6488 36.0652 51.0236 36.6904C50.3985 37.3155 49.5507 37.6667 48.6666 37.6667C47.7826 37.6667 46.9347 37.3155 46.3096 36.6904C45.6845 36.0652 45.3333 35.2174 45.3333 34.3333C45.3333 33.4493 45.6845 32.6014 46.3096 31.9763C46.9347 31.3512 47.7826 31 48.6666 31C49.5507 31 50.3985 31.3512 51.0236 31.9763C51.6488 32.6014 51.9999 33.4493 51.9999 34.3333ZM51.9919 43.488C51.9187 45.6065 51.3898 47.6843 50.4413 49.58C49.5673 51.2328 48.255 52.6129 46.6484 53.569C45.0417 54.5251 43.2028 55.0202 41.3333 55H39.9999V47.6667C39.994 46.4308 39.5004 45.2473 38.6265 44.3734C37.7526 43.4995 36.5691 43.006 35.3333 43H27.9999V41.6667C27.9798 39.7972 28.4749 37.9582 29.431 36.3516C30.387 34.7449 31.7672 33.4326 33.4199 32.5587C35.3156 31.6101 37.3935 31.0812 39.5119 31.008C41.4544 28.499 43.949 26.4714 46.8019 25.0826C49.6549 23.6938 52.7896 22.9811 55.9626 23C56.4906 22.9967 57.014 23.0976 57.5029 23.297C57.9918 23.4963 58.4366 23.7902 58.8117 24.1619C59.1867 24.5335 59.4848 24.9755 59.6887 25.4625C59.8926 25.9495 59.9984 26.472 59.9999 27C60.0225 30.179 59.3118 33.3203 57.9229 36.1799C56.534 39.0395 54.5045 41.5403 51.9919 43.488ZM30.7786 40.3333H33.7946C34.7848 38.128 35.948 36.0045 37.2733 33.9827C36.3528 34.1968 35.4608 34.5191 34.6159 34.9427C33.5999 35.4792 32.7235 36.2463 32.0572 37.1824C31.3908 38.1185 30.9529 39.1976 30.7786 40.3333ZM49.0173 45.7267C46.9955 47.052 44.872 48.2151 42.6666 49.2053V52.2213C43.8024 52.047 44.8815 51.6091 45.8176 50.9428C46.7537 50.2764 47.5207 49.4001 48.0573 48.384C48.4809 47.5392 48.8031 46.6472 49.0173 45.7267ZM57.3333 26.9627C57.3236 26.6156 57.1788 26.2859 56.9298 26.0439C56.6808 25.8019 56.3472 25.6665 55.9999 25.6667C49.1199 25.8627 44.4666 28.4987 39.9759 34.7627C38.7228 36.5669 37.6208 38.4716 36.6813 40.4573C38.1372 40.7285 39.4769 41.4341 40.524 42.4812C41.5712 43.5284 42.2768 44.8681 42.5479 46.324C44.5336 45.3844 46.4383 44.2825 48.2426 43.0293C54.5013 38.5333 57.1373 33.88 57.3333 26.9627ZM36.1626 46.8387C36.9076 47.5913 37.3255 48.6076 37.3255 49.6667C37.3255 50.7257 36.9076 51.742 36.1626 52.4947C34.9533 53.7027 31.3333 54.448 29.8319 54.7133L27.9573 55.0427L28.2866 53.168C28.5533 51.6667 29.2973 48.0467 30.5053 46.8373C31.2676 46.1102 32.2807 45.7047 33.3342 45.7049C34.3877 45.7052 35.4006 46.1112 36.1626 46.8387ZM34.6666 49.6667C34.6671 49.4915 34.6328 49.318 34.5657 49.1562C34.4987 48.9944 34.4002 48.8475 34.2759 48.724C34.0259 48.474 33.6868 48.3336 33.3333 48.3336C32.9797 48.3336 32.6406 48.474 32.3906 48.724C31.8823 49.6417 31.5252 50.6353 31.3333 51.6667C32.365 51.4739 33.359 51.1164 34.2773 50.608C34.4011 50.4846 34.4993 50.3378 34.5661 50.1763C34.6329 50.0147 34.6671 49.8415 34.6666 49.6667Z" fill="url(#paint2_linear_1129_47)"/>
</g>
<defs>
<linearGradient id="paint0_linear_1129_47" x1="33.5671" y1="-5.22325e-06" x2="80.1836" y2="36.855" gradientUnits="userSpaceOnUse">
<stop stop-color="#7E8FFF"/>
<stop offset="1" stop-color="#92EFFD"/>
</linearGradient>
<linearGradient id="paint1_linear_1129_47" x1="13.32" y1="12" x2="21.3583" y2="17.6475" gradientUnits="userSpaceOnUse">
<stop stop-color="#7E8FFF"/>
<stop offset="1" stop-color="#92EFFD"/>
</linearGradient>
<linearGradient id="paint2_linear_1129_47" x1="40.1337" y1="22.9996" x2="58.5316" y2="35.9257" gradientUnits="userSpaceOnUse">
<stop stop-color="#7E8FFF"/>
<stop offset="1" stop-color="#92EFFD"/>
</linearGradient>
<clipPath id="clip0_1129_47">
<rect width="32" height="32" fill="white" transform="translate(28 23)"/>
</clipPath>
</defs>
</svg>
