<svg width="89" height="79" viewBox="0 0 89 79" fill="none" xmlns="http://www.w3.org/2000/svg">
<path opacity="0.2" d="M38.7072 3.55861C42.0259 1.39562 46.3087 1.39562 49.6274 3.55861L72.0426 18.1675C74.0077 19.4483 75.4601 21.379 76.1457 23.6222L85.5001 54.2265C87.0795 59.3936 84.2687 64.8808 79.1526 66.6184L47.3831 77.4079C45.2977 78.1161 43.0369 78.1161 40.9515 77.4079L9.18199 66.6184C4.06587 64.8808 1.25515 59.3936 2.83451 54.2265L12.1889 23.6222C12.8745 21.379 14.3269 19.4483 16.292 18.1675L38.7072 3.55861Z" fill="url(#paint0_linear_1175_1451)"/>
<circle cx="15" cy="19" r="7" fill="url(#paint1_linear_1175_1451)"/>
<g clip-path="url(#clip0_1175_1451)">
<path d="M59.4772 45.684L55.7439 32.2173C54.9937 29.5084 53.3586 27.1284 51.099 25.4564C48.8394 23.7844 46.0853 22.9167 43.2754 22.9914C40.4655 23.0661 37.7614 24.0789 35.5938 25.8685C33.4262 27.6582 31.9198 30.1217 31.3146 32.8667L28.4279 45.8533C28.3197 46.3406 28.3223 46.846 28.4355 47.3322C28.5488 47.8183 28.7698 48.2729 29.0822 48.6622C29.3946 49.0515 29.7904 49.3657 30.2405 49.5816C30.6906 49.7974 31.1834 49.9094 31.6826 49.9093H37.2066C37.6309 51.3767 38.5205 52.6664 39.7414 53.5843C40.9623 54.5022 42.4484 54.9986 43.9759 54.9986C45.5034 54.9986 46.9895 54.5022 48.2104 53.5843C49.4313 52.6664 50.3209 51.3767 50.7452 49.9093H56.2666C56.7805 49.9094 57.2874 49.7906 57.7478 49.5623C58.2081 49.334 58.6095 49.0023 58.9205 48.5933C59.2314 48.1842 59.4436 47.7087 59.5404 47.204C59.6373 46.6994 59.6148 46.1791 59.4772 45.684ZM32.5132 45.9093L35.2199 33.7267C35.6345 31.8548 36.6633 30.1753 38.1426 28.9557C39.622 27.7361 41.4668 27.0464 43.3834 26.9964C45.3 26.9464 47.1782 27.539 48.7191 28.6799C50.26 29.8207 51.375 31.4443 51.8866 33.292L55.3906 45.9093H32.5132Z" fill="url(#paint2_linear_1175_1451)"/>
</g>
<defs>
<linearGradient id="paint0_linear_1175_1451" x1="33.5671" y1="-5.22325e-06" x2="80.1836" y2="36.855" gradientUnits="userSpaceOnUse">
<stop stop-color="#EE897B"/>
<stop offset="1" stop-color="#AE0862"/>
</linearGradient>
<linearGradient id="paint1_linear_1175_1451" x1="13.32" y1="12" x2="21.3583" y2="17.6475" gradientUnits="userSpaceOnUse">
<stop stop-color="#EE897B"/>
<stop offset="1" stop-color="#AE0862"/>
</linearGradient>
<linearGradient id="paint2_linear_1175_1451" x1="40.2242" y1="22.9869" x2="58.4503" y2="35.4882" gradientUnits="userSpaceOnUse">
<stop stop-color="#EE897B"/>
<stop offset="1" stop-color="#AE0862"/>
</linearGradient>
<clipPath id="clip0_1175_1451">
<rect width="32" height="32" fill="white" transform="translate(28 23)"/>
</clipPath>
</defs>
</svg>
